<?xml version="1.0" encoding="UTF-8" standalone="no"?><!DOCTYPE svg PUBLIC "-//W3C//DTD SVG 1.1//EN" "http://www.w3.org/Graphics/SVG/1.1/DTD/svg11.dtd"><svg width="100%" height="100%" viewBox="0 0 96 96" version="1.1" xmlns="http://www.w3.org/2000/svg" xmlns:xlink="http://www.w3.org/1999/xlink" xml:space="preserve" xmlns:serif="http://www.serif.com/" style="fill-rule:evenodd;clip-rule:evenodd;stroke-linejoin:round;stroke-miterlimit:2;"><path d="M95.354,42.972c-0.134,-1.979 -1.048,-3.827 -2.54,-5.135c-1.49,-1.307 -3.44,-1.969 -5.417,-1.841l-0.292,0c-1.876,0.215 -3.597,1.151 -4.797,2.609c-1.201,1.461 -1.789,3.332 -1.64,5.217l-0,0.294c0.352,2.597 0.352,5.229 -0,7.826l-0,0.294c-0.44,2.928 -1.236,5.792 -2.369,8.529c-2.252,5.337 -5.861,9.994 -10.469,13.505c-4.605,3.508 -10.049,5.749 -15.789,6.498c-5.739,0.748 -11.574,-0.023 -16.921,-2.234c-5.352,-2.213 -10.032,-5.79 -13.572,-10.373c-3.543,-4.586 -5.826,-10.02 -6.621,-15.761c-0.795,-5.741 -0.076,-11.592 2.086,-16.97c2.159,-5.376 5.688,-10.094 10.234,-13.684c4.544,-3.587 9.949,-5.921 15.676,-6.768c3.891,-0.53 7.843,-0.431 11.703,0.293c2.3,0.335 4.375,1.57 5.766,3.431c1.393,1.863 1.992,4.203 1.666,6.506c-0.481,2.019 -1.726,3.774 -3.471,4.896c-1.744,1.119 -3.857,1.519 -5.889,1.113l-0.295,0c-0.641,-0.159 -1.299,-0.248 -1.96,-0.263l-0.263,-0c-1.069,-0.118 -2.144,-0.167 -3.22,-0.147c-3.214,0.185 -6.312,1.267 -8.943,3.122c-2.634,1.857 -4.697,4.413 -5.955,7.38c-1.259,2.969 -1.665,6.231 -1.171,9.418c0.493,3.185 1.867,6.17 3.966,8.617c2.097,2.446 4.837,4.256 7.909,5.226c3.07,0.968 6.351,1.057 9.469,0.256c3.119,-0.801 5.952,-2.46 8.178,-4.788c2.227,-2.329 3.76,-5.236 4.425,-8.39l0.409,-2.52c0.122,-1.394 0.173,-2.793 0.148,-4.192c-0.004,-5.411 1.946,-10.646 5.489,-14.735c3.539,-4.086 8.44,-6.756 13.792,-7.513l0.438,-0c0.921,-0.122 1.851,-0.172 2.78,-0.148l0.703,0c-4.327,-6.886 -10.328,-12.567 -17.441,-16.511c-7.109,-3.94 -15.102,-6.015 -23.23,-6.029c-12.818,0.21 -25.047,5.477 -34.007,14.645c-8.972,9.178 -13.976,21.531 -13.919,34.366c0.27,10.884 4.217,21.363 11.195,29.72c6.969,8.35 16.569,14.093 27.221,16.285c10.65,2.189 21.733,0.699 31.425,-4.226c9.7,-4.931 17.448,-13.007 21.972,-22.902l0.149,-0.264c2.24,-5.202 3.604,-10.739 4.038,-16.386c-0.088,-3.078 -0.383,-5.598 -0.646,-8.266Z" style="fill:#46b549;fill-rule:nonzero;"/></svg>